<?xml version="1.0" encoding="UTF-8" standalone="no" ?>
<!DOCTYPE svg PUBLIC "-//W3C//DTD SVG 1.1//EN" "http://www.w3.org/Graphics/SVG/1.1/DTD/svg11.dtd">
<svg xmlns="http://www.w3.org/2000/svg" xmlns:xlink="http://www.w3.org/1999/xlink" version="1.1" width="500" height="500" viewBox="0 0 500 500" xml:space="preserve">
<desc>Created with Fabric.js 5.3.0</desc>
<defs>
</defs>
<g transform="matrix(0.4931502077 0 0 0.4931502077 250 250)" id="5jTtGifH8Q2hS8C8TvrQI"  >
<g style=""   >
		<g transform="matrix(1 0 0 1 -1.9529564223 11.9609334731)" id="Su13AYW0by1wOMMsexF-V"  >
<path style="stroke: none; stroke-width: 1; stroke-dasharray: none; stroke-linecap: butt; stroke-dashoffset: 0; stroke-linejoin: miter; stroke-miterlimit: 4; fill: rgb(55,206,191); fill-rule: nonzero; opacity: 1;"  transform=" translate(-298.0472634408, -311.9614391723)" d="M 177.114 528.563 C 13.512 541.848 -15.585 434.182 35.872 293.012 C 47.269 371.042 88.158 458.362 177.114 528.563 z M 349.268 81.184 C 381.419 85.88799999999999 418.37399999999997 91.831 453.447 102.634 C 405.999 57.44 353.63599999999997 27.406999999999996 311.303 27.076999999999998 C 266.432 26.726999999999997 221.555 39.156 177.838 73.92 C 241.27 68.053 313.28 75.917 349.268 81.184 z M 487.311 475.828 C 541.856 455.861 574.5939999999999 427.43199999999996 581.4639999999999 382.08399999999995 C 584.7819999999999 360.18799999999993 583.6099999999999 336.97999999999996 578.8439999999999 313.33099999999996 C 564.136 368.69 531.09 427.844 487.311 475.828 z M 492.001 26.096 C 481.167 20.863 468.14599999999996 25.401 462.912 36.233000000000004 C 457.678 47.066 454.92199999999997 80.75300000000001 465.75399999999996 85.987 C 476.585 91.219 496.90399999999994 66.01599999999999 502.13699999999994 55.184999999999995 C 507.371 44.352 502.832 31.329 492.001 26.096 z M 183.886 559.957 C 179.42499999999998 568.5649999999999 178.204 592.908 187.29399999999998 598.59 C 196.385 604.272 213.428 591.773 208.88299999999998 579.274 C 204.33799999999997 566.775 188.321 551.397 183.886 559.957 z M 96.394 38.415 C 88.86500000000001 38.415 82.759 44.519999999999996 82.759 52.05 C 82.759 59.58 88.864 65.685 96.394 65.685 C 103.924 65.685 110.02900000000001 59.58 110.02900000000001 52.050000000000004 C 110.02900000000001 44.52000000000001 103.924 38.415 96.394 38.415 z" stroke-linecap="round" />
</g>
		<g transform="matrix(1 0 0 1 9.8388572731 33.686206575)" id="935lGT_71gTOm6fdAzonn"  >
<path style="stroke: none; stroke-width: 1; stroke-dasharray: none; stroke-linecap: butt; stroke-dashoffset: 0; stroke-linejoin: miter; stroke-miterlimit: 4; fill: rgb(251,82,97); fill-rule: nonzero; opacity: 1;"  transform=" translate(-309.8390771363, -333.6867122742)" d="M 190.734 527.213 C 318.13800000000003 512.3689999999999 419.554 500.62899999999996 487.31000000000006 475.828 C 407.04400000000004 563.802 290.72300000000007 614.228 185.26500000000004 534.851 C 182.50200000000004 532.771 179.79000000000005 530.672 177.11400000000003 528.562 C 181.557 528.201 186.094 527.753 190.734 527.213 z M 578.844 313.331 C 587.8190000000001 279.548 589.9730000000001 247.178 583.556 219.62600000000003 C 568.283 154.04000000000002 513.639 121.17300000000003 453.447 102.63400000000003 C 512.372 158.758 563.715 238.266 578.844 313.331 z M 177.838 73.92 C 140.04399999999998 77.415 105.29799999999999 85.782 83.029 102.483 C 47.601 129.054 23.04 205.141 35.872 293.012 C 41.778 276.809 48.743 260.166 56.69 243.213 C 95.33 160.781 136.053 107.148 177.838 73.92 z M 143.388 545.967 C 134.947 551.285 110.74700000000001 568.986 133.89100000000002 587.228 C 157.68500000000003 605.981 161.247 577.64 163.99 564.372 C 166.73 551.103 166.979 531.1 143.388 545.967 z M 523.626 486.1 C 516.097 486.1 509.991 492.20500000000004 509.991 499.73600000000005 C 509.991 507.26700000000005 516.096 513.3720000000001 523.626 513.3720000000001 C 531.156 513.3720000000001 537.261 507.26700000000005 537.261 499.73600000000005 C 537.261 492.20500000000004 531.156 486.1 523.626 486.1 z" stroke-linecap="round" />
</g>
		<g transform="matrix(1 0 0 1 7.3582801369 -21.4424419405)" id="wjJ4gEJWItF5qIgyXCrtK"  >
<path style="stroke: none; stroke-width: 1; stroke-dasharray: none; stroke-linecap: butt; stroke-dashoffset: 0; stroke-linejoin: miter; stroke-miterlimit: 4; fill: rgb(202,122,221); fill-rule: nonzero; opacity: 1;"  transform=" translate(-307.3585, -278.5580637588)" d="M 578.844 313.331 C 564.1360000000001 368.69 531.09 427.84400000000005 487.31100000000004 475.82800000000003 C 419.55500000000006 500.629 318.139 512.369 190.735 527.2130000000001 C 186.09400000000002 527.753 181.55700000000002 528.2010000000001 177.115 528.5630000000001 C 88.159 458.3630000000001 47.269000000000005 371.04200000000014 35.87300000000002 293.0130000000001 C 41.77900000000002 276.8100000000001 48.74400000000002 260.1670000000001 56.69100000000002 243.21400000000008 C 95.33100000000002 160.7820000000001 136.053 107.14900000000009 177.83800000000002 73.92100000000008 C 241.27000000000004 68.05400000000007 313.28000000000003 75.91800000000008 349.26800000000003 81.18500000000007 C 381.41900000000004 85.88900000000007 418.374 91.83200000000008 453.447 102.63500000000008 C 512.372 158.758 563.715 238.266 578.844 313.331 z M 146.321 0.161 C 135.49 1.544 127.828 11.443 129.208 22.276 C 130.588 33.109 145.168 60.105999999999995 156.003 58.727000000000004 C 166.833 57.346000000000004 169.81599999999997 28.109000000000005 168.438 17.278000000000006 C 167.056 6.443 157.154 -1.22 146.321 0.161 z M 538.016 90.936 C 531.584 65.637 502.74999999999994 77.024 495.597 87.411 C 484.097 104.109 544.444 116.235 538.016 90.936 z M 491.811 519.619 C 481.457 519.619 473.063 528.014 473.063 538.368 C 473.063 548.7220000000001 481.45799999999997 557.1160000000001 491.811 557.1160000000001 C 502.16499999999996 557.1160000000001 510.56 548.7220000000001 510.56 538.368 C 510.56 528.014 502.165 519.619 491.811 519.619 z" stroke-linecap="round" />
</g>
</g>
</g>
<g transform="matrix(1.8641855445 0 0 1.8641872138 250 250)" id="qW2-vJ-CVnRSmM56AlGKt"  >
<g style=""   >
		<g transform="matrix(1 0 0 1 0 0)" id="dbv6HskVXuR2fmZO5KJU4"  >
<path style="stroke: none; stroke-width: 1; stroke-dasharray: none; stroke-linecap: butt; stroke-dashoffset: 0; stroke-linejoin: miter; stroke-miterlimit: 4; fill: rgb(179,181,179); fill-rule: nonzero; opacity: 1;"  transform=" translate(-40, -40)" d="M 72.1 27.8 L 61.2 27.8 L 45.1 7.800000000000001 C 43.9 6.1 42 5.2 40 5.2 C 38 5.2 36.1 6.1000000000000005 34.8 7.800000000000001 L 18.699999999999996 27.8 L 7.9 27.8 C 3.5 27.8 0 31.400000000000002 0 35.7 C 0 39.5 2.7 42.7 6.4 43.5 L 11.4 67.6 C 12.200000000000001 71.69999999999999 16.2 74.8 20.3 74.8 L 59.7 74.8 C 63.900000000000006 74.8 67.8 71.6 68.60000000000001 67.6 L 73.60000000000001 43.49999999999999 C 77.2 42.79999999999999 80.00000000000001 39.599999999999994 80.00000000000001 35.699999999999996 C 80 31.3 76.4 27.8 72.1 27.8 z M 39.2 11.3 C 39.7 10.700000000000001 40.300000000000004 10.700000000000001 40.800000000000004 11.3 L 54 27.8 L 26 27.8 L 39.2 11.3 z" stroke-linecap="round" />
</g>
		<g transform="matrix(1 0 0 1 -0.05 11.3)" id="wlEPs_TIzt1oBX-Kf48CS"  >
<path style="stroke: none; stroke-width: 1; stroke-dasharray: none; stroke-linecap: butt; stroke-dashoffset: 0; stroke-linejoin: miter; stroke-miterlimit: 4; fill: rgb(255,255,255); fill-rule: nonzero; opacity: 1;"  transform=" translate(-39.95, -51.3)" d="M 55.7 43.6 L 67.8 43.6 L 63 66.4 C 62.7 67.80000000000001 61.1 69.2 59.6 69.2 L 20.3 69.2 C 18.8 69.2 17.2 67.9 16.900000000000002 66.4 L 12.100000000000001 43.60000000000001 L 24.200000000000003 43.60000000000001 C 24.200000000000003 43.60000000000001 24.200000000000003 43.70000000000001 24.200000000000003 43.70000000000001 L 26.000000000000004 58.900000000000006 C 26.100000000000005 59.900000000000006 26.900000000000002 60.60000000000001 27.900000000000002 60.60000000000001 C 28.000000000000004 60.60000000000001 28.000000000000004 60.60000000000001 28.1 60.60000000000001 C 29.1 60.50000000000001 29.900000000000002 59.50000000000001 29.8 58.50000000000001 L 28.1 43.7 L 38.1 43.7 L 38.1 58.800000000000004 C 38.1 59.800000000000004 38.9 60.7 40 60.7 C 41.1 60.7 41.9 59.900000000000006 41.9 58.800000000000004 L 41.9 43.6 L 51.9 43.6 L 50.199999999999996 58.400000000000006 C 50.099999999999994 59.400000000000006 50.8 60.400000000000006 51.9 60.50000000000001 C 52 60.50000000000001 52 60.50000000000001 52.1 60.50000000000001 C 53 60.50000000000001 53.9 59.800000000000004 54 58.800000000000004 L 55.8 43.60000000000001 C 55.7 43.7 55.7 43.7 55.7 43.6 z M 72.1 33.4 L 7.9 33.4 C 6.6000000000000005 33.4 5.6000000000000005 34.4 5.6000000000000005 35.699999999999996 C 5.6000000000000005 36.99999999999999 6.6000000000000005 37.99999999999999 7.9 37.99999999999999 L 72 37.99999999999999 C 73.3 37.99999999999999 74.3 36.99999999999999 74.3 35.699999999999996 C 74.3 34.4 73.3 33.4 72.1 33.4 z" stroke-linecap="round" />
</g>
</g>
</g>
</svg>